<svg width="15" height="16" viewBox="0 0 15 16" fill="none" xmlns="http://www.w3.org/2000/svg">
<path d="M7.5 15.5C6.125 15.5 4.86932 15.1648 3.73295 14.4943C2.59659 13.8125 1.6875 12.9034 1.00568 11.767C0.335227 10.6307 0 9.375 0 8C0 6.61364 0.335227 5.35796 1.00568 4.23296C1.6875 3.09659 2.59659 2.19318 3.73295 1.52273C4.86932 0.840909 6.125 0.5 7.5 0.5C8.88636 0.5 10.142 0.840909 11.267 1.52273C12.4034 2.19318 13.3068 3.09659 13.9773 4.23296C14.6591 5.35796 15 6.61364 15 8C15 9.375 14.6591 10.6307 13.9773 11.767C13.3068 12.9034 12.4034 13.8125 11.267 14.4943C10.142 15.1648 8.88636 15.5 7.5 15.5Z" fill="#3C82F6"/>
</svg>
