<svg width="25" height="25" viewBox="0 0 25 25" fill="none" xmlns="http://www.w3.org/2000/svg">
<path d="M2.01501 20.895C2.01501 21.4255 2.22573 21.9342 2.6008 22.3092C2.97587 22.6843 3.48458 22.895 4.01501 22.895H20.015C20.5454 22.895 21.0542 22.6843 21.4292 22.3092C21.8043 21.9342 22.015 21.4255 22.015 20.895V8.89502L15.015 13.895V8.89502L8.01501 13.895V4.89502C8.01501 4.36459 7.8043 3.85588 7.42923 3.48081C7.05416 3.10573 6.54545 2.89502 6.01501 2.89502H4.01501C3.48458 2.89502 2.97587 3.10573 2.6008 3.48081C2.22573 3.85588 2.01501 4.36459 2.01501 4.89502V20.895Z" stroke="white" stroke-width="2" stroke-linecap="round" stroke-linejoin="round"/>
<path d="M17.015 18.895H18.015" stroke="white" stroke-width="2" stroke-linecap="round" stroke-linejoin="round"/>
<path d="M12.015 18.895H13.015" stroke="white" stroke-width="2" stroke-linecap="round" stroke-linejoin="round"/>
<path d="M7.01501 18.895H8.01501" stroke="white" stroke-width="2" stroke-linecap="round" stroke-linejoin="round"/>
</svg>
